<?xml version="1.0" encoding="utf-8"?>
<svg version="1.1" id="Layer_1" xmlns="http://www.w3.org/2000/svg" xmlns:xlink="http://www.w3.org/1999/xlink" x="0px" y="0px"
	 viewBox="0 0 50 50" enable-background="new 0 0 50 50" xml:space="preserve">
<g>
	<path fill-rule="evenodd" clip-rule="evenodd" d="M25,18.7L41.9,1.8c1.7-1.7,3.3-0.5,5,1.3c1.7,1.7,3,3.3,1.3,5L31.3,25l16.9,16.9
		c1.7,1.7,0.5,3.3-1.3,5c-1.7,1.7-3.3,3-5,1.3L25,31.3L8.1,48.2c-1.7,1.7-3.3,0.5-5-1.3s-3-3.3-1.3-5L18.7,25L1.8,8.1
		c-1.7-1.7-0.5-3.3,1.3-5s3.3-3,5-1.3L25,18.7z"/>
</g>
</svg>
