<?xml version="1.0" encoding="utf-8"?>
<svg version="1.1" id="Layer_1" xmlns="http://www.w3.org/2000/svg" xmlns:xlink="http://www.w3.org/1999/xlink" x="0px" y="0px"
	 viewBox="0 0 50 50" enable-background="new 0 0 50 50" xml:space="preserve">
<g>
	<path fill-rule="evenodd" clip-rule="evenodd" d="M41.5,40.7h-6v1.4c0,0.8-0.7,1.4-1.5,1.4c-0.8,0-1.5-0.6-1.5-1.4v-1.4h-24
		C7.7,40.7,7,40,7,39.2c0-0.8,0.7-1.4,1.5-1.4h24v-1.4c0-0.8,0.7-1.4,1.5-1.4c0.8,0,1.5,0.6,1.5,1.4v1.4h6c0.8,0,1.5,0.6,1.5,1.4
		C43,40,42.3,40.7,41.5,40.7z M33.2,19.3c0,0.4-0.4,0.6-0.4,0.6l-11.1,6.4c-0.8,0.5-1.5,0.1-1.5-0.8V13.1c0-0.9,0.7-1.3,1.5-0.8
		l11.1,6.4C32.8,18.7,33.2,19,33.2,19.3z M7,30.7h36V7.9H7V30.7z M46,2.2H4c-1.7,0-3,1.3-3,2.8v39.8c0,1.6,1.3,2.8,3,2.8h42
		c1.7,0,3-1.3,3-2.8V5.1C49,3.5,47.7,2.2,46,2.2z"/>
</g>
</svg>
