<?xml version="1.0" encoding="utf-8"?>
<svg version="1.1" id="Layer_1" xmlns="http://www.w3.org/2000/svg" xmlns:xlink="http://www.w3.org/1999/xlink" x="0px" y="0px"
	 viewBox="0 0 50 50" enable-background="new 0 0 50 50" xml:space="preserve">
<path fill-rule="evenodd" clip-rule="evenodd" d="M23.5,44.4c-8.9,0-16.2-7-16.2-15.7s7.2-15.7,16.2-15.7c8.9,0,16.2,7,16.2,15.7
	C39.7,37.4,32.4,44.4,23.5,44.4z M23.5,7.9C11.6,7.9,2,17.2,2,28.7c0,11.5,9.6,20.8,21.5,20.8c11.9,0,21.5-9.3,21.5-20.8
	C45,17.2,35.4,7.9,23.5,7.9z M47.7,8.7c-0.5-0.6-1.1-1.2-1.6-1.7c-0.6-0.6-1.2-1.1-1.8-1.6c-0.4-0.3-1.6-0.6-2.4,0.1
	c-0.8,0.7-4.4,4.2-4.4,4.2c1.1,0.7,2.1,1.6,3.1,2.5c1,0.9,1.8,1.9,2.6,3c0,0,3.6-3.5,4.4-4.2C48.3,10.2,48,9,47.7,8.7z M15.6,6.6
	c2.5-0.8,5.1-1.3,7.9-1.3s5.4,0.5,7.9,1.3c0.9,0.3,2-0.3,1.5-1.6c-0.4-0.9-0.7-1.8-0.9-2.2c-0.3-0.9-1.6-1.6-2.1-1.7
	c-2-0.4-4.2-0.7-6.4-0.7c-2.2,0-4.3,0.2-6.4,0.7C16.6,1.3,15.4,2,15,2.9c-0.1,0.4-0.5,1.3-0.9,2.2C13.6,6.3,14.8,6.9,15.6,6.6z
	 M16.5,17.8c-1.2,0.7,3.2,10.9,4.2,12.6c0.9,1.5,2.9,1.9,4.4,1c1.5-0.9,2-2.8,1-4.3C25.2,25.4,17.7,17.1,16.5,17.8z"/>
</svg>
